<svg width="181" height="30" viewBox="0 0 181 30" fill="none" xmlns="http://www.w3.org/2000/svg">
<path d="M48.9604 3C49.5127 3 49.9604 3.44772 49.9604 4V5.83592C49.9604 6.38821 49.5127 6.83593 48.9604 6.83593H44.799C44.2467 6.83593 43.799 7.28364 43.799 7.83593V25.6945C43.799 26.2468 43.3513 26.6945 42.799 26.6945H40.1614C39.6091 26.6945 39.1614 26.2468 39.1614 25.6945V7.83592C39.1614 7.28364 38.7137 6.83593 38.1614 6.83593H34C33.4477 6.83593 33 6.38821 33 5.83593V4C33 3.44772 33.4477 3 34 3H48.9604Z" fill="#420504"/>
<path d="M59.1743 27C57.4076 27 55.8175 26.604 54.4042 25.8119C52.9908 24.9972 51.8756 23.8543 51.0585 22.3833C50.2634 20.9123 49.8659 19.215 49.8659 17.2914C49.8659 15.3678 50.2745 13.6704 51.0916 12.1994C51.9308 10.7284 53.0681 9.59689 54.5035 8.80481C55.939 7.9901 57.5401 7.58274 59.3068 7.58274C61.0735 7.58274 62.6746 7.9901 64.11 8.80481C65.5455 9.59689 66.6717 10.7284 67.4888 12.1994C68.328 13.6704 68.7476 15.3678 68.7476 17.2914C68.7476 19.215 68.317 20.9123 67.4557 22.3833C66.6165 23.8543 65.4682 24.9972 64.0106 25.8119C62.5752 26.604 60.9631 27 59.1743 27ZM59.1743 22.8586C60.0135 22.8586 60.7974 22.6549 61.5262 22.2475C62.2771 21.8175 62.8733 21.1839 63.315 20.3465C63.7567 19.5092 63.9775 18.4908 63.9775 17.2914C63.9775 15.5035 63.5138 14.1344 62.5862 13.1839C61.6808 12.2107 60.5656 11.7242 59.2405 11.7242C57.9155 11.7242 56.8003 12.2107 55.8948 13.1839C55.0115 14.1344 54.5698 15.5035 54.5698 17.2914C54.5698 19.0792 55.0004 20.4597 55.8617 21.4328C56.7451 22.3833 57.8492 22.8586 59.1743 22.8586Z" fill="#420504"/>
<path d="M94.94 7.61669C97.1926 7.61669 99.0034 8.32956 100.373 9.7553C101.764 11.1584 102.46 13.1273 102.46 15.662V25.6945C102.46 26.2468 102.012 26.6945 101.46 26.6945H98.822C98.2697 26.6945 97.822 26.2468 97.822 25.6945V16.3069C97.822 14.8359 97.4576 13.7157 96.7288 12.9462C96 12.1542 95.0063 11.7581 93.7475 11.7581C92.4887 11.7581 91.4839 12.1542 90.733 12.9462C90.0043 13.7157 89.6399 14.8359 89.6399 16.3069V25.6945C89.6399 26.2468 89.1922 26.6945 88.6399 26.6945H86.0023C85.45 26.6945 85.0023 26.2468 85.0023 25.6945V16.3069C85.0023 14.8359 84.6379 13.7157 83.9091 12.9462C83.1804 12.1542 82.1866 11.7581 80.9278 11.7581C79.647 11.7581 78.6311 12.1542 77.8802 12.9462C77.1515 13.7157 76.7871 14.8359 76.7871 16.3069V25.6945C76.7871 26.2468 76.3394 26.6945 75.7871 26.6945H73.1495C72.5972 26.6945 72.1495 26.2468 72.1495 25.6945V8.88826C72.1495 8.33597 72.5972 7.88826 73.1495 7.88826H76.2172C76.532 7.88826 76.7871 8.1434 76.7871 8.45812C76.7871 9.00526 77.5504 9.28963 77.9867 8.95953C78.3192 8.70798 78.6812 8.48667 79.0728 8.29561C80.0224 7.843 81.0603 7.61669 82.1866 7.61669C83.622 7.61669 84.9029 7.93352 86.0292 8.56718C86.6091 8.88182 87.1217 9.26847 87.567 9.72712C88.1199 10.2966 89.186 10.3052 89.7446 9.74141C90.174 9.30801 90.6691 8.92792 91.2299 8.60113C92.3783 7.94484 93.615 7.61669 94.94 7.61669Z" fill="#420504"/>
<path d="M105.668 17.2235C105.668 15.3225 106.032 13.6365 106.761 12.1655C107.512 10.6945 108.517 9.56294 109.775 8.77086C111.056 7.97878 112.481 7.58274 114.049 7.58274C115.418 7.58274 116.61 7.86563 117.626 8.4314C118.013 8.64205 118.37 8.87309 118.698 9.12453C119.202 9.51046 120.111 9.17645 120.111 8.54175C120.111 8.18084 120.403 7.88826 120.764 7.88826H123.781C124.334 7.88826 124.781 8.33597 124.781 8.88826V25.6945C124.781 26.2468 124.334 26.6945 123.781 26.6945H120.755C120.399 26.6945 120.111 26.4059 120.111 26.05C120.111 25.4144 119.172 25.0782 118.67 25.4673C118.351 25.714 118.003 25.942 117.626 26.1513C116.588 26.7171 115.385 27 114.016 27C112.47 27 111.056 26.5926 109.775 25.7779C108.517 24.9632 107.512 23.8204 106.761 22.3494C106.032 20.8557 105.668 19.1471 105.668 17.2235ZM120.111 17.2914C120.111 16.1372 119.89 15.1528 119.448 14.338C119.006 13.5007 118.41 12.867 117.659 12.4371C116.909 11.9844 116.102 11.7581 115.241 11.7581C114.38 11.7581 113.585 11.9731 112.856 12.4031C112.127 12.8331 111.531 13.4668 111.067 14.3041C110.626 15.1188 110.405 16.0919 110.405 17.2235C110.405 18.355 110.626 19.3508 111.067 20.2108C111.531 21.0481 112.127 21.6931 112.856 22.1457C113.607 22.5983 114.402 22.8246 115.241 22.8246C116.102 22.8246 116.909 22.6096 117.659 22.1796C118.41 21.727 119.006 21.0934 119.448 20.2786C119.89 19.4413 120.111 18.4455 120.111 17.2914Z" fill="#420504"/>
<path d="M135.71 11.7921C135.158 11.7921 134.71 12.2398 134.71 12.7921V20.8897C134.71 21.5233 134.854 21.9873 135.141 22.2815C135.45 22.553 135.958 22.6888 136.665 22.6888H137.818C138.37 22.6888 138.818 23.1365 138.818 23.6888V25.6945C138.818 26.2468 138.37 26.6945 137.818 26.6945H135.903C131.994 26.6945 130.04 24.7482 130.04 20.8557V12.7921C130.04 12.2398 129.592 11.7921 129.04 11.7921H128.853C128.301 11.7921 127.853 11.3444 127.853 10.7921V8.88826C127.853 8.33597 128.301 7.88826 128.853 7.88826H129.04C129.592 7.88826 130.04 7.44054 130.04 6.88826V4.23762C130.04 3.68534 130.487 3.23762 131.04 3.23762H133.71C134.263 3.23762 134.71 3.68534 134.71 4.23762V6.88826C134.71 7.44054 135.158 7.88826 135.71 7.88826H137.818C138.37 7.88826 138.818 8.33597 138.818 8.88826V10.7921C138.818 11.3444 138.37 11.7921 137.818 11.7921H135.71Z" fill="#420504"/>
<path d="M150.302 27C148.536 27 146.946 26.604 145.532 25.8119C144.119 24.9972 143.004 23.8543 142.187 22.3833C141.392 20.9123 140.994 19.215 140.994 17.2914C140.994 15.3678 141.403 13.6704 142.22 12.1994C143.059 10.7284 144.196 9.59689 145.632 8.80481C147.067 7.9901 148.668 7.58274 150.435 7.58274C152.202 7.58274 153.803 7.9901 155.238 8.80481C156.674 9.59689 157.8 10.7284 158.617 12.1994C159.456 13.6704 159.876 15.3678 159.876 17.2914C159.876 19.215 159.445 20.9123 158.584 22.3833C157.745 23.8543 156.596 24.9972 155.139 25.8119C153.703 26.604 152.091 27 150.302 27ZM150.302 22.8586C151.142 22.8586 151.926 22.6549 152.654 22.2475C153.405 21.8175 154.002 21.1839 154.443 20.3465C154.885 19.5092 155.106 18.4908 155.106 17.2914C155.106 15.5035 154.642 14.1344 153.714 13.1839C152.809 12.2107 151.694 11.7242 150.369 11.7242C149.044 11.7242 147.928 12.2107 147.023 13.1839C146.14 14.1344 145.698 15.5035 145.698 17.2914C145.698 19.0792 146.129 20.4597 146.99 21.4328C147.873 22.3833 148.977 22.8586 150.302 22.8586Z" fill="#420504"/>
<path d="M171.427 27C169.66 27 168.07 26.604 166.657 25.8119C165.243 24.9972 164.128 23.8543 163.311 22.3833C162.516 20.9123 162.118 19.215 162.118 17.2914C162.118 15.3678 162.527 13.6704 163.344 12.1994C164.183 10.7284 165.32 9.59689 166.756 8.80481C168.191 7.9901 169.792 7.58274 171.559 7.58274C173.326 7.58274 174.927 7.9901 176.362 8.80481C177.798 9.59689 178.924 10.7284 179.741 12.1994C180.58 13.6704 181 15.3678 181 17.2914C181 19.215 180.569 20.9123 179.708 22.3833C178.869 23.8543 177.721 24.9972 176.263 25.8119C174.828 26.604 173.215 27 171.427 27ZM171.427 22.8586C172.266 22.8586 173.05 22.6549 173.779 22.2475C174.529 21.8175 175.126 21.1839 175.567 20.3465C176.009 19.5092 176.23 18.4908 176.23 17.2914C176.23 15.5035 175.766 14.1344 174.839 13.1839C173.933 12.2107 172.818 11.7242 171.493 11.7242C170.168 11.7242 169.053 12.2107 168.147 13.1839C167.264 14.1344 166.822 15.5035 166.822 17.2914C166.822 19.0792 167.253 20.4597 168.114 21.4328C168.997 22.3833 170.102 22.8586 171.427 22.8586Z" fill="#420504"/>
<path fill-rule="evenodd" clip-rule="evenodd" d="M4.67802 1C4.67802 0.447715 5.12573 0 5.67802 0H9.35606H14.0341H17.7121C18.2643 0 18.7121 0.447715 18.7121 1V2.61252C18.7121 3.1648 18.2643 3.61252 17.7121 3.61252L15.0341 3.61252C14.4818 3.61252 14.0341 4.06023 14.0341 4.61252V5.12574C14.0341 5.61328 14.3869 6.0253 14.8609 6.13937C15.8274 6.37197 16.7463 6.71749 17.6174 7.17594C19.4075 8.10652 20.8156 9.40125 21.8416 11.0601C22.8895 12.6988 23.4135 14.5498 23.4135 16.6133C23.4135 18.697 22.8895 20.5683 21.8416 22.2271C21.7523 22.3698 21.6601 22.5098 21.5649 22.6471C21.2618 23.0847 21.296 23.6864 21.6864 24.0483L24.6761 26.8187C25.1031 27.2144 25.1031 27.8899 24.6761 28.2857L23.1171 29.7303C22.7337 30.0857 22.1412 30.0857 21.7577 29.7303L17.8532 26.112C17.7892 26.0528 17.6948 26.0407 17.6174 26.081C15.8273 27.0116 13.8625 27.4768 11.7231 27.4768C9.58369 27.4768 7.61893 27.0116 5.82881 26.081C4.03869 25.1504 2.61969 23.8658 1.57181 22.2271C0.523937 20.5683 0 18.697 0 16.6133C0 14.5498 0.523937 12.6988 1.57181 11.0601C2.61969 9.40125 4.03869 8.10652 5.82881 7.17594C6.69052 6.72798 7.59271 6.38784 8.53536 6.15552C9.00648 6.03941 9.35606 5.62858 9.35606 5.14336V4.61252C9.35606 4.06023 8.90835 3.61252 8.35606 3.61252L5.67802 3.61252C5.12573 3.61252 4.67802 3.1648 4.67802 2.61252V1ZM15.3579 22.834C14.31 23.4005 13.0984 23.6837 11.7231 23.6837C10.3478 23.6837 9.12525 23.4005 8.05554 22.834C7.00766 22.2474 6.18901 21.4179 5.59958 20.3457C5.01015 19.2735 4.71544 18.0294 4.71544 16.6133C4.71544 15.1972 5.01015 13.9631 5.59958 12.9112C6.18901 11.839 7.00766 11.0197 8.05554 10.4532C9.12525 9.88677 10.3478 9.60355 11.7231 9.60355C13.0984 9.60355 14.31 9.88677 15.3579 10.4532C16.4058 11.0197 17.2244 11.839 17.8139 12.9112C18.4033 13.9631 18.698 15.1972 18.698 16.6133C18.698 18.0294 18.4033 19.2735 17.8139 20.3457C17.2244 21.4179 16.4058 22.2474 15.3579 22.834Z" fill="#DF3427"/>
</svg>
