<svg width="40" height="40" viewBox="0 0 40 40" fill="none" xmlns="http://www.w3.org/2000/svg">
<path d="M22.7488 33.7239C20.2903 34.5483 17.65 34.6679 15.127 34.0693C12.604 33.4707 10.2989 32.1777 8.47275 30.3367C6.6466 28.4957 5.3723 26.1802 4.79411 23.6524C4.21592 21.1246 4.35694 18.4854 5.20119 16.0336C6.04544 13.5818 7.55922 11.4154 9.57114 9.77943C11.5831 8.14351 14.0128 7.1035 16.5853 6.77713C19.1577 6.45076 21.7702 6.85106 24.1269 7.93273C26.4836 9.01439 28.4904 10.7342 29.9202 12.8975" stroke="#420504" stroke-width="4.44444" stroke-linecap="round"/>
<path d="M36.8873 21.1293L36.5834 10.1556C36.56 9.31248 35.6428 8.80178 34.9138 9.22599L25.0697 14.9548C24.3119 15.3958 24.3395 16.4996 25.1184 16.9022L35.2665 22.1471C36.0181 22.5355 36.9108 21.975 36.8873 21.1293Z" fill="#420504"/>
</svg>
