<svg width="56" height="56" viewBox="0 0 56 56" fill="none" xmlns="http://www.w3.org/2000/svg">
<g filter="url(#filter0_b_6_234)">
<rect width="56" height="56" rx="12" fill="#F1EAE9"/>
</g>
<path fill-rule="evenodd" clip-rule="evenodd" d="M31.8148 13.4357C31.3457 13.3224 31 12.9123 31 12.4297V11C31 10.4477 30.5523 10 30 10H27C26.4477 10 26 10.4477 26 11V12.2392C26 12.7441 25.6229 13.1661 25.1262 13.2564C23.4856 13.5547 21.9355 14.1132 20.476 14.932C20.0965 15.1449 19.73 15.3715 19.3765 15.612C18.9604 15.895 18.3976 15.8622 18.0418 15.5063L16.9003 14.3648C16.5098 13.9743 15.8766 13.9743 15.4861 14.3648L13.3647 16.4861C12.9742 16.8767 12.9742 17.5098 13.3647 17.9004L14.9131 19.4487C15.1406 19.6762 15.1786 20.0303 15.016 20.308C14.1395 21.7871 13.5488 23.3914 13.2439 25.1206C13.1559 25.6198 12.7328 26 12.2259 26H11C10.4477 26 10 26.4477 10 27V30C10 30.5523 10.4477 31 11 31H12.4274C12.9108 31 13.3214 31.3468 13.4337 31.817C13.7679 33.2172 14.2953 34.5329 15.016 35.764C15.1619 36.0103 15.3135 36.2508 15.4707 36.4855C15.7486 36.9006 15.7133 37.4584 15.3601 37.8116L14.565 38.6066C14.1745 38.9971 14.1745 39.6303 14.565 40.0208L16.6863 42.1421C17.0769 42.5327 17.71 42.5327 18.1005 42.1421L19.0738 41.1689C19.4072 40.8355 19.9266 40.7833 20.3354 41.0182C20.3821 41.045 20.4289 41.0716 20.476 41.098C21.9355 41.9168 23.4856 42.4753 25.1262 42.7736C25.6229 42.8639 26 43.2859 26 43.7908V45C26 45.5523 26.4477 46 27 46H30C30.5523 46 31 45.5523 31 45V43.5952C31 43.1132 31.3447 42.7034 31.813 42.5896C33.1352 42.2683 34.3962 41.7711 35.596 41.098C35.9563 40.8959 36.41 40.9456 36.7021 41.2377L37.9903 42.5259C38.3808 42.9165 39.014 42.9165 39.4045 42.5259L41.5258 40.4046C41.9163 40.0141 41.9163 39.3809 41.5258 38.9904L40.5462 38.0108C40.1902 37.6548 40.1575 37.0918 40.4407 36.6756C40.6412 36.3811 40.8323 36.0772 41.014 35.764C41.7347 34.5329 42.2621 33.2172 42.5963 31.817C42.7086 31.3468 43.1192 31 43.6026 31H45C45.5523 31 46 30.5523 46 30V27C46 26.4477 45.5523 26 45 26H43.8041C43.2972 26 42.8741 25.6198 42.7861 25.1206C42.4812 23.3914 41.8905 21.7871 41.014 20.308C40.786 19.9102 40.8373 19.4053 41.1616 19.081L42.1421 18.1005C42.5327 17.71 42.5327 17.0768 42.1421 16.6863L40.0208 14.565C39.6303 14.1744 38.9971 14.1744 38.6066 14.5649L37.8113 15.3602C37.4599 15.7116 36.9058 15.7484 36.4904 15.4755C36.201 15.2853 35.9029 15.1042 35.596 14.932C34.4051 14.2557 33.1447 13.7569 31.8148 13.4357ZM32.698 36.604C31.354 37.388 29.8 37.78 28.036 37.78C26.272 37.78 24.704 37.388 23.332 36.604C21.988 35.792 20.938 34.644 20.182 33.16C19.426 31.676 19.048 29.954 19.048 27.994C19.048 26.034 19.426 24.326 20.182 22.87C20.938 21.386 21.988 20.252 23.332 19.468C24.704 18.684 26.272 18.292 28.036 18.292C29.8 18.292 31.354 18.684 32.698 19.468C34.042 20.252 35.092 21.386 35.848 22.87C36.604 24.326 36.982 26.034 36.982 27.994C36.982 29.954 36.604 31.676 35.848 33.16C35.092 34.644 34.042 35.792 32.698 36.604Z" fill="#420504"/>
<defs>
<filter id="filter0_b_6_234" x="-64" y="-64" width="184" height="184" filterUnits="userSpaceOnUse" color-interpolation-filters="sRGB">
<feFlood flood-opacity="0" result="BackgroundImageFix"/>
<feGaussianBlur in="BackgroundImageFix" stdDeviation="32"/>
<feComposite in2="SourceAlpha" operator="in" result="effect1_backgroundBlur_6_234"/>
<feBlend mode="normal" in="SourceGraphic" in2="effect1_backgroundBlur_6_234" result="shape"/>
</filter>
</defs>
</svg>
