<svg width="36" height="36" viewBox="0 0 36 36" fill="none" xmlns="http://www.w3.org/2000/svg">
<path d="M20.4739 30.3515C18.2612 31.0934 15.885 31.2011 13.6143 30.6623C11.3436 30.1236 9.269 28.9599 7.62547 27.303C5.98193 25.6461 4.83506 23.5622 4.31469 21.2872C3.79432 19.0121 3.92124 16.6369 4.68106 14.4303C5.44089 12.2236 6.80329 10.2738 8.61402 8.80148C10.4248 7.32915 12.6115 6.39314 14.9267 6.0994C17.2419 5.80567 19.5931 6.16594 21.7142 7.13944C23.8352 8.11294 25.6414 9.66078 26.9282 11.6077" stroke="#420504" stroke-width="4" stroke-linecap="round"/>
<path d="M33.1986 19.0163L32.925 9.14001C32.904 8.38124 32.0785 7.92161 31.4224 8.3034L22.5627 13.4593C21.8807 13.8562 21.9055 14.8497 22.6065 15.212L31.7398 19.9324C32.4163 20.282 33.2197 19.7775 33.1986 19.0163Z" fill="#420504"/>
</svg>
