<svg width="36" height="36" viewBox="0 0 36 36" fill="none" xmlns="http://www.w3.org/2000/svg">
<path fill-rule="evenodd" clip-rule="evenodd" d="M17.25 11C16.6977 11 16.25 11.4477 16.25 12V16.25H12C11.4477 16.25 11 16.6977 11 17.25V18.75C11 19.3023 11.4477 19.75 12 19.75H16.25V24C16.25 24.5523 16.6977 25 17.25 25H18.75C19.3023 25 19.75 24.5523 19.75 24V19.75H24C24.5523 19.75 25 19.3023 25 18.75V17.25C25 16.6977 24.5523 16.25 24 16.25H19.75V12C19.75 11.4477 19.3023 11 18.75 11H17.25Z" fill="white"/>
<circle cx="18" cy="18" r="12" fill="#DF3427"/>
<path fill-rule="evenodd" clip-rule="evenodd" d="M17.25 11C16.6977 11 16.25 11.4477 16.25 12V16.25H12C11.4477 16.25 11 16.6977 11 17.25V18.75C11 19.3023 11.4477 19.75 12 19.75H16.25V24C16.25 24.5523 16.6977 25 17.25 25H18.75C19.3023 25 19.75 24.5523 19.75 24V19.75H24C24.5523 19.75 25 19.3023 25 18.75V17.25C25 16.6977 24.5523 16.25 24 16.25H19.75V12C19.75 11.4477 19.3023 11 18.75 11H17.25Z" fill="white"/>
</svg>
