<svg width="24" height="24" viewBox="0 0 24 24" fill="none" xmlns="http://www.w3.org/2000/svg">
<path fill-rule="evenodd" clip-rule="evenodd" d="M9.2666 1.51878C8.47973 1.25967 7.63181 1.68751 7.3727 2.47437L1.43015 20.5211C1.17105 21.308 1.59888 22.1559 2.38575 22.415C3.17261 22.6741 4.02054 22.2463 4.27964 21.4594L7.25406 12.4265C9.01361 14.2731 11.4978 16.0021 13.5001 13.9999C14.7981 12.7018 16.0583 12.4495 17.13 12.6457C18.7001 12.9332 20.892 12.5749 21.3912 11.0588L22.606 7.3695C22.8666 6.57806 22.6103 5.7062 21.897 5.2756C20.2331 4.27124 17.1115 2.88842 15.0002 4.99989C13.6056 6.39452 11.9606 5.6388 10.5995 4.43062C10.4221 4.27316 10.225 4.14299 10.0157 4.03987L10.2222 3.41267C10.4813 2.62581 10.0535 1.77788 9.2666 1.51878Z" fill="#8E7877"/>
</svg>
